<svg xmlns="http://www.w3.org/2000/svg" viewBox="0 0 122.4 116.64">
	<path d="M63.39,1.63L75.4,42.32c0.29,0.99,1.22,1.66,2.25,1.63l42.41-1.15c2.27-0.06,3.22,2.87,1.35,4.16l-34.98,24
	c-0.85,0.58-1.2,1.67-0.86,2.64l14.2,39.98c0.76,2.14-1.74,3.95-3.54,2.57L62.59,90.3c-0.82-0.63-1.96-0.63-2.78,0l-33.63,25.86
	c-1.8,1.38-4.3-0.43-3.54-2.57l14.2-39.98c0.35-0.97-0.01-2.06-0.86-2.64l-34.98-24c-1.87-1.29-0.92-4.22,1.35-4.16l42.41,1.15
	c1.03,0.03,1.96-0.64,2.25-1.63L59.02,1.63C59.66-0.54,62.74-0.54,63.39,1.63z"/>
</svg>
